<svg width="42" height="30" viewBox="0 0 42 30" fill="none" xmlns="http://www.w3.org/2000/svg">
<path d="M0.833008 29.6666V22.3333C0.833008 21.4471 1.1462 20.6909 1.77259 20.0645C2.39898 19.4381 3.15523 19.1249 4.04134 19.1249H10.5038C11.0233 19.1249 11.5198 19.2548 11.9934 19.5145C12.467 19.7742 12.8719 20.1333 13.208 20.5916C14.0941 21.8749 15.2247 22.868 16.5997 23.5708C17.9747 24.2735 19.4413 24.6249 20.9997 24.6249C22.558 24.6249 24.0247 24.2735 25.3997 23.5708C26.7747 22.868 27.9205 21.8749 28.8372 20.5916C29.1733 20.1333 29.5705 19.7742 30.0288 19.5145C30.4872 19.2548 30.9761 19.1249 31.4955 19.1249H37.958C38.8441 19.1249 39.6004 19.4381 40.2268 20.0645C40.8531 20.6909 41.1663 21.4471 41.1663 22.3333V29.6666H29.2497V24.2124C28.1497 25.2208 26.8893 25.9999 25.4684 26.5499C24.0476 27.0999 22.558 27.3749 20.9997 27.3749C19.4413 27.3749 17.9594 27.0999 16.5538 26.5499C15.1483 25.9999 13.8802 25.2208 12.7497 24.2124V29.6666H0.833008ZM20.9997 21.8749C19.9302 21.8749 18.899 21.6228 17.9059 21.1187C16.9129 20.6145 16.1108 19.9194 15.4997 19.0333C15.0108 18.3305 14.4226 17.7652 13.7351 17.3374C13.0476 16.9096 12.3066 16.6194 11.5122 16.4666C12.3983 15.5499 13.7886 14.8471 15.683 14.3583C17.5775 13.8694 19.3497 13.6249 20.9997 13.6249C22.6497 13.6249 24.4295 13.8694 26.3393 14.3583C28.249 14.8471 29.6469 15.5499 30.533 16.4666C29.7386 16.6194 28.9976 16.9096 28.3101 17.3374C27.6226 17.7652 27.0344 18.3305 26.5455 19.0333C25.9344 19.9194 25.1323 20.6145 24.1393 21.1187C23.1462 21.6228 22.0997 21.8749 20.9997 21.8749ZM6.33301 15.9166C4.95801 15.9166 3.77398 15.4201 2.78092 14.427C1.78787 13.4339 1.29134 12.2499 1.29134 10.8749C1.29134 9.46936 1.78787 8.2777 2.78092 7.29992C3.77398 6.32214 4.95801 5.83325 6.33301 5.83325C7.73856 5.83325 8.93023 6.32214 9.90801 7.29992C10.8858 8.2777 11.3747 9.46936 11.3747 10.8749C11.3747 12.2499 10.8858 13.4339 9.90801 14.427C8.93023 15.4201 7.73856 15.9166 6.33301 15.9166ZM35.6663 15.9166C34.2913 15.9166 33.1073 15.4201 32.1143 14.427C31.1212 13.4339 30.6247 12.2499 30.6247 10.8749C30.6247 9.46936 31.1212 8.2777 32.1143 7.29992C33.1073 6.32214 34.2913 5.83325 35.6663 5.83325C37.0719 5.83325 38.2636 6.32214 39.2413 7.29992C40.2191 8.2777 40.708 9.46936 40.708 10.8749C40.708 12.2499 40.2191 13.4339 39.2413 14.427C38.2636 15.4201 37.0719 15.9166 35.6663 15.9166ZM20.9997 10.4166C19.6247 10.4166 18.4406 9.92006 17.4476 8.927C16.4545 7.93395 15.958 6.74992 15.958 5.37492C15.958 3.96936 16.4545 2.7777 17.4476 1.79992C18.4406 0.822141 19.6247 0.333252 20.9997 0.333252C22.4052 0.333252 23.5969 0.822141 24.5747 1.79992C25.5525 2.7777 26.0413 3.96936 26.0413 5.37492C26.0413 6.74992 25.5525 7.93395 24.5747 8.927C23.5969 9.92006 22.4052 10.4166 20.9997 10.4166Z" fill="#0009A5"/>
</svg>
