<svg width="351" height="298" viewBox="0 0 351 298" fill="none" xmlns="http://www.w3.org/2000/svg">
<path d="M-260 298V139.5C-260 120.348 -253.229 104.003 -239.686 90.4641C-226.144 76.9255 -209.794 70.1562 -190.636 70.1562H-50.9182C-39.6879 70.1562 -28.953 72.963 -18.7136 78.5765C-8.47424 84.1901 0.27879 91.95 7.54546 101.856C26.703 129.594 51.1455 151.057 80.8727 166.247C110.6 181.436 142.309 189.031 176 189.031C209.691 189.031 241.4 181.436 271.127 166.247C300.855 151.057 325.627 129.594 345.445 101.856C352.712 91.95 361.3 84.1901 371.209 78.5765C381.118 72.963 391.688 70.1562 402.918 70.1562H542.636C561.794 70.1562 578.144 76.9255 591.686 90.4641C605.229 104.003 612 120.348 612 139.5V298H354.364V180.116C330.582 201.909 303.332 218.75 272.614 230.637C241.895 242.525 209.691 248.469 176 248.469C142.309 248.469 110.27 242.525 79.8818 230.637C49.4939 218.75 22.0788 201.909 -2.36363 180.116V298H-260ZM176 129.594C152.879 129.594 130.583 124.145 109.114 113.248C87.6439 102.352 70.303 87.3271 57.0909 68.175C46.5212 52.9854 33.8046 40.7677 18.9409 31.5219C4.07729 22.276 -11.9424 16.0021 -29.1182 12.7C-9.96061 -7.11249 20.097 -22.3021 61.0546 -32.8688C102.012 -43.4354 140.327 -48.7188 176 -48.7188C211.673 -48.7188 250.153 -43.4354 291.441 -32.8688C332.729 -22.3021 362.952 -7.11249 382.109 12.7C364.933 16.0021 348.914 22.276 334.05 31.5219C319.186 40.7677 306.47 52.9854 295.9 68.175C282.688 87.3271 265.347 102.352 243.877 113.248C222.408 124.145 199.782 129.594 176 129.594ZM-141.091 0.8125C-170.818 0.8125 -196.417 -9.91927 -217.886 -31.3828C-239.356 -52.8464 -250.091 -78.4375 -250.091 -108.156C-250.091 -138.535 -239.356 -164.292 -217.886 -185.425C-196.417 -206.558 -170.818 -217.125 -141.091 -217.125C-110.703 -217.125 -84.9394 -206.558 -63.8 -185.425C-42.6606 -164.292 -32.0909 -138.535 -32.0909 -108.156C-32.0909 -78.4375 -42.6606 -52.8464 -63.8 -31.3828C-84.9394 -9.91927 -110.703 0.8125 -141.091 0.8125ZM493.091 0.8125C463.364 0.8125 437.765 -9.91927 416.295 -31.3828C394.826 -52.8464 384.091 -78.4375 384.091 -108.156C384.091 -138.535 394.826 -164.292 416.295 -185.425C437.765 -206.558 463.364 -217.125 493.091 -217.125C523.479 -217.125 549.242 -206.558 570.382 -185.425C591.521 -164.292 602.091 -138.535 602.091 -108.156C602.091 -78.4375 591.521 -52.8464 570.382 -31.3828C549.242 -9.91927 523.479 0.8125 493.091 0.8125ZM176 -118.062C146.273 -118.062 120.674 -128.794 99.2045 -150.258C77.7349 -171.721 67 -197.312 67 -227.031C67 -257.41 77.7349 -283.167 99.2045 -304.3C120.674 -325.433 146.273 -336 176 -336C206.388 -336 232.152 -325.433 253.291 -304.3C274.43 -283.167 285 -257.41 285 -227.031C285 -197.312 274.43 -171.721 253.291 -150.258C232.152 -128.794 206.388 -118.062 176 -118.062Z" fill="#F9FAFB"/>
</svg>
