<svg width="44" height="44" viewBox="0 0 44 44" fill="none" xmlns="http://www.w3.org/2000/svg">
<path d="M5.63783 26.95L3.66699 24.9792L17.0503 11.6417L24.7045 19.2958L35.7503 8.25H29.9295V5.5H40.3337V15.9042H37.6295V10.2667L24.6587 23.2375L17.0045 15.5833L5.63783 26.95Z" fill="#0009A5"/>
<path d="M4.58301 39.2333V35.7499L7.33301 32.9999V39.2333H4.58301ZM12.1455 39.2333V28.4166L14.8955 25.6666V39.2333H12.1455ZM19.708 39.2333V25.6666L22.458 28.4624V39.2333H19.708ZM27.2705 39.2333V28.4624L30.0205 25.7124V39.2333H27.2705ZM34.833 39.2333V21.0833L37.583 18.3333V39.2333H34.833Z" fill="#0009A5"/>
<path d="M6.60033 15.9499L5.68366 13.9333L3.66699 13.0166L5.68366 12.0999L6.60033 10.0833L7.51699 12.0999L9.53366 13.0166L7.51699 13.9333L6.60033 15.9499Z" fill="#0009A5"/>
<path d="M23.1003 9.53341L22.1837 7.51675L20.167 6.60008L22.1837 5.68341L23.1003 3.66675L24.017 5.68341L26.0337 6.60008L24.017 7.51675L23.1003 9.53341Z" fill="#0009A5"/>
</svg>
