<svg width="351" height="298" viewBox="0 0 351 298" fill="none" xmlns="http://www.w3.org/2000/svg">
<path fill-rule="evenodd" clip-rule="evenodd" d="M180.36 -87.44L202.16 -39.48L223.96 -87.44L271.92 -109.24L223.96 -131.04L202.16 -179L180.36 -131.04L132.4 -109.24L180.36 -87.44ZM-260 327.848L-213.13 374.718L57.19 104.398L239.22 286.428L547.69 -22.0417V112.028H612V-135.402H364.57V-70.0017H503L240.31 192.688L58.28 10.6583L-260 327.848ZM-238.191 583.997V666.837H-172.791V518.597L-238.191 583.997ZM-58.3414 409.597V666.837H7.05859V344.197L-58.3414 409.597ZM121.509 344.197V666.837H186.909V410.687L121.509 344.197ZM301.359 410.687V666.837H366.759V345.287L301.359 410.687ZM481.209 235.197V666.837H546.609V169.797L481.209 235.197ZM-190.24 113.116L-212.04 65.1559L-260 43.3559L-212.04 21.5559L-190.24 -26.4041L-168.44 21.5559L-120.48 43.3559L-168.44 65.1559L-190.24 113.116Z" fill="#F9FAFB"/>
</svg>
