<svg width="38" height="42" viewBox="0 0 38 42" fill="none" xmlns="http://www.w3.org/2000/svg">
<path d="M3.5998 41.1666V38.4166H34.3998V41.1666H3.5998ZM3.5998 3.58325V0.833252H34.3998V3.58325H3.5998ZM18.9998 22.6499C20.5276 22.6499 21.8109 22.1305 22.8498 21.0916C23.8887 20.0527 24.4081 18.7694 24.4081 17.2416C24.4081 15.7138 23.8887 14.4305 22.8498 13.3916C21.8109 12.3527 20.5276 11.8333 18.9998 11.8333C17.472 11.8333 16.1887 12.3527 15.1498 13.3916C14.1109 14.4305 13.5915 15.7138 13.5915 17.2416C13.5915 18.7694 14.1109 20.0527 15.1498 21.0916C16.1887 22.1305 17.472 22.6499 18.9998 22.6499ZM3.0498 35.6666C2.31647 35.6666 1.6748 35.3916 1.1248 34.8416C0.574805 34.2916 0.299805 33.6499 0.299805 32.9166V9.08325C0.299805 8.28881 0.574805 7.63186 1.1248 7.11242C1.6748 6.59297 2.31647 6.33325 3.0498 6.33325H34.9498C35.6831 6.33325 36.3248 6.60825 36.8748 7.15825C37.4248 7.70825 37.6998 8.34992 37.6998 9.08325V32.9166C37.6998 33.6499 37.4248 34.2916 36.8748 34.8416C36.3248 35.3916 35.6831 35.6666 34.9498 35.6666H3.0498ZM7.08314 32.9166C8.64147 30.9916 10.4901 29.5478 12.629 28.5853C14.7679 27.6228 16.8915 27.1416 18.9998 27.1416C21.0776 27.1416 23.2088 27.6228 25.3936 28.5853C27.5783 29.5478 29.4192 30.9916 30.9165 32.9166H34.9498V9.08325H3.0498V32.9166H7.08314ZM11.3915 32.9166H26.6998C25.7526 31.9999 24.6449 31.2666 23.3769 30.7166C22.1088 30.1666 20.6498 29.8916 18.9998 29.8916C17.3498 29.8916 15.9061 30.1666 14.6686 30.7166C13.4311 31.2666 12.3387 31.9999 11.3915 32.9166ZM18.9998 19.8999C18.2665 19.8999 17.6477 19.6402 17.1436 19.1208C16.6394 18.6013 16.3873 17.9749 16.3873 17.2416C16.3873 16.5083 16.6394 15.8819 17.1436 15.3624C17.6477 14.843 18.2665 14.5833 18.9998 14.5833C19.7331 14.5833 20.3519 14.843 20.8561 15.3624C21.3602 15.8819 21.6123 16.5083 21.6123 17.2416C21.6123 17.9749 21.3602 18.6013 20.8561 19.1208C20.3519 19.6402 19.7331 19.8999 18.9998 19.8999Z" fill="#0009A5"/>
</svg>
