<svg width="351" height="298" viewBox="0 0 351 298" fill="none" xmlns="http://www.w3.org/2000/svg">
<path d="M-183.059 491.392V427.274H535.059V491.392H-183.059ZM-183.059 -384.882V-449H535.059V-384.882H-183.059ZM176 59.6666C211.621 59.6666 241.542 47.5555 265.765 23.3333C289.987 -0.888916 302.098 -30.8105 302.098 -66.4314C302.098 -102.052 289.987 -131.974 265.765 -156.196C241.542 -180.418 211.621 -192.529 176 -192.529C140.379 -192.529 110.457 -180.418 86.2352 -156.196C62.013 -131.974 49.9019 -102.052 49.9019 -66.4314C49.9019 -30.8105 62.013 -0.888916 86.2352 23.3333C110.457 47.5555 140.379 59.6666 176 59.6666ZM-195.882 363.157C-212.98 363.157 -227.941 356.745 -240.765 343.921C-253.588 331.098 -260 316.137 -260 299.039V-256.647C-260 -275.17 -253.588 -290.487 -240.765 -302.598C-227.941 -314.709 -212.98 -320.765 -195.882 -320.765H547.882C564.98 -320.765 579.941 -314.353 592.765 -301.529C605.588 -288.706 612 -273.745 612 -256.647V299.039C612 316.137 605.588 331.098 592.765 343.921C579.941 356.745 564.98 363.157 547.882 363.157H-195.882ZM-101.843 299.039C-65.5098 254.157 -22.4085 220.495 27.4607 198.054C77.33 175.613 126.843 164.392 176 164.392C224.444 164.392 274.136 175.613 325.073 198.054C376.011 220.495 418.935 254.157 453.843 299.039H547.882V-256.647H-195.882V299.039H-101.843ZM-1.39218 299.039H355.529C333.444 277.667 307.619 260.569 278.054 247.745C248.488 234.921 214.471 228.51 176 228.51C137.529 228.51 103.868 234.921 75.0146 247.745C46.1617 260.569 20.6928 277.667 -1.39218 299.039ZM176 -4.45105C158.902 -4.45105 144.475 -10.5066 132.721 -22.6177C120.966 -34.7288 115.088 -49.3334 115.088 -66.4314C115.088 -83.5294 120.966 -98.134 132.721 -110.245C144.475 -122.356 158.902 -128.412 176 -128.412C193.098 -128.412 207.524 -122.356 219.279 -110.245C231.034 -98.134 236.912 -83.5294 236.912 -66.4314C236.912 -49.3334 231.034 -34.7288 219.279 -22.6177C207.524 -10.5066 193.098 -4.45105 176 -4.45105Z" fill="#F9FAFB"/>
</svg>
