<svg width="42" height="41" viewBox="0 0 42 41" fill="none" xmlns="http://www.w3.org/2000/svg">
<path d="M38.6542 18.0125L37.6 15.7208L35.3083 14.6667L37.6 13.6125L38.6542 11.3208L39.7083 13.6125L42 14.6667L39.7083 15.7208L38.6542 18.0125ZM32.8333 9.99167L31.2292 6.6L27.8375 4.99583L31.2292 3.39167L32.8333 0L34.4375 3.39167L37.8292 4.99583L34.4375 6.6L32.8333 9.99167ZM14.5 40.3333C13.4611 40.3333 12.5826 39.9743 11.8646 39.2562C11.1465 38.5382 10.7875 37.6597 10.7875 36.6208H18.2125C18.2125 37.6597 17.8535 38.5382 17.1354 39.2562C16.4174 39.9743 15.5389 40.3333 14.5 40.3333ZM7.075 33.7792V31.0292H21.925V33.7792H7.075ZM7.30417 28.2333C5.2875 26.9194 3.69097 25.2771 2.51458 23.3062C1.33819 21.3354 0.75 19.1125 0.75 16.6375C0.75 12.9097 2.10972 9.68611 4.82917 6.96667C7.54861 4.24722 10.7722 2.8875 14.5 2.8875C18.2278 2.8875 21.4514 4.24722 24.1708 6.96667C26.8903 9.68611 28.25 12.9097 28.25 16.6375C28.25 19.1125 27.6694 21.3354 26.5083 23.3062C25.3472 25.2771 23.7431 26.9194 21.6958 28.2333H7.30417ZM8.3125 25.4833H20.7333C22.2 24.5056 23.3611 23.2375 24.2167 21.6792C25.0722 20.1208 25.5 18.4403 25.5 16.6375C25.5 13.6125 24.4229 11.0229 22.2688 8.86875C20.1146 6.71458 17.525 5.6375 14.5 5.6375C11.475 5.6375 8.88542 6.71458 6.73125 8.86875C4.57708 11.0229 3.5 13.6125 3.5 16.6375C3.5 18.4403 3.92778 20.1208 4.78333 21.6792C5.63889 23.2375 6.81528 24.5056 8.3125 25.4833Z" fill="#0009A5"/>
</svg>
