<svg width="351" height="298" viewBox="0 0 351 298" fill="none" xmlns="http://www.w3.org/2000/svg">
<path d="M427.271 357.773L404.987 309.329L356.542 287.044L404.987 264.76L427.271 216.316L449.556 264.76L498 287.044L449.556 309.329L427.271 357.773ZM304.222 188.218L270.311 116.52L198.613 82.6089L270.311 48.6978L304.222 -23L338.133 48.6978L409.831 82.6089L338.133 116.52L304.222 188.218ZM-83.3333 829.622C-105.295 829.622 -123.865 822.033 -139.044 806.853C-154.224 791.674 -161.813 773.104 -161.813 751.142H-4.85333C-4.85333 773.104 -12.443 791.674 -27.6222 806.853C-42.8015 822.033 -61.3719 829.622 -83.3333 829.622ZM-240.293 691.071V632.938H73.6266V691.071H-240.293ZM-235.449 573.836C-278.08 546.061 -311.83 511.342 -336.698 469.68C-361.566 428.018 -374 381.027 -374 328.707C-374 249.904 -345.256 181.759 -287.769 124.271C-230.281 66.7837 -162.136 38.04 -83.3333 38.04C-4.53036 38.04 63.6148 66.7837 121.102 124.271C178.59 181.759 207.333 249.904 207.333 328.707C207.333 381.027 195.061 428.018 170.516 469.68C145.97 511.342 112.059 546.061 68.7822 573.836H-235.449ZM-214.133 515.702H48.4355C79.44 495.033 103.985 468.227 122.071 435.284C140.157 402.342 149.2 366.816 149.2 328.707C149.2 264.76 126.431 210.018 80.8933 164.48C35.3556 118.942 -19.3867 96.1733 -83.3333 96.1733C-147.28 96.1733 -202.022 118.942 -247.56 164.48C-293.098 210.018 -315.867 264.76 -315.867 328.707C-315.867 366.816 -306.824 402.342 -288.738 435.284C-270.652 468.227 -245.784 495.033 -214.133 515.702Z" fill="#F9FAFB"/>
</svg>
